HIERARCHY
ROOT Hips
{
	OFFSET 0.000000 0.000000 0.000000
	CHANNELS 6 Xposition Yposition Zposition Zrotation Yrotation Xrotation 
	JOINT LeftUpLeg_virtual
	{
		OFFSET 0.000000 0.000000 0.000000
		CHANNELS 3 Zrotation Yrotation Xrotation
		JOINT LeftUpLeg
		{
			OFFSET 10.205400 -3.823500 0.155100
			CHANNELS 3 Zrotation Yrotation Xrotation
			JOINT LeftLeg
			{
				OFFSET 0.708757 -12.982077 0.567790
				CHANNELS 3 Zrotation Yrotation Xrotation
				JOINT LeftFoot
				{
					OFFSET -0.708756 -10.717838 -2.184338
					CHANNELS 3 Zrotation Yrotation Xrotation
					JOINT LeftToeBase
					{
						OFFSET 0.108149 -7.191104 7.560241
						CHANNELS 3 Zrotation Yrotation Xrotation
						End Site
						{
							OFFSET 0.000000 0.000000 0.000000
						}
					}
				}
			}
		}
	}
	JOINT RightUpLeg_virtual
	{
		OFFSET 0.000000 0.000000 0.000000
		CHANNELS 3 Zrotation Yrotation Xrotation
		JOINT RightUpLeg
		{
			OFFSET -10.205400 -3.823500 0.005500
			CHANNELS 3 Zrotation Yrotation Xrotation
			JOINT RightLeg
			{
				OFFSET -0.708756 -12.982134 0.610632
				CHANNELS 3 Zrotation Yrotation Xrotation
				JOINT RightFoot
				{
					OFFSET 0.708754 -10.717769 -1.945823
					CHANNELS 3 Zrotation Yrotation Xrotation
					JOINT RightToeBase
					{
						OFFSET -0.108140 -7.191069 7.372968
						CHANNELS 3 Zrotation Yrotation Xrotation
						End Site
						{
							OFFSET 0.000000 0.000000 0.000000
						}
					}
				}
			}
		}
	}
	JOINT Spine_virtual
	{
		OFFSET 0.000000 0.000000 0.000000
		CHANNELS 3 Zrotation Yrotation Xrotation
		JOINT Spine
		{
			OFFSET 0.000000 6.876099 0.125700
			CHANNELS 3 Zrotation Yrotation Xrotation
			JOINT Spine1
			{
				OFFSET 0.000000 8.022060 0.146608
				CHANNELS 3 Zrotation Yrotation Xrotation
				JOINT Spine2
				{
					OFFSET 0.000000 9.168068 0.167552
					CHANNELS 3 Zrotation Yrotation Xrotation
					JOINT Neck_virtual
					{
						OFFSET 0.000000 0.000000 0.000000
						CHANNELS 3 Zrotation Yrotation Xrotation
						JOINT Neck
						{
							OFFSET 0.000000 10.314075 0.188496
							CHANNELS 3 Zrotation Yrotation Xrotation
							JOINT Head
							{
								OFFSET 0.000000 7.643700 -2.377400
								CHANNELS 3 Zrotation Yrotation Xrotation
								End Site
								{
									OFFSET 0.000000 0.000000 0.000000
								}
							}
						}
					}
					JOINT LeftShoulder_virtual
					{
						OFFSET 0.000000 0.000000 0.000000
						CHANNELS 3 Zrotation Yrotation Xrotation
						JOINT LeftShoulder
						{
							OFFSET 4.392200 8.824978 0.174984
							CHANNELS 3 Zrotation Yrotation Xrotation
							JOINT LeftArm
							{
								OFFSET 8.771219 -2.981674 -0.026999
								CHANNELS 3 Zrotation Yrotation Xrotation
								JOINT LeftForeArm
								{
									OFFSET 8.512804 0.000000 -0.000000
									CHANNELS 3 Zrotation Yrotation Xrotation
									JOINT LeftHand
									{
										OFFSET 18.484802 0.000000 -0.000000
										CHANNELS 3 Zrotation Yrotation Xrotation
										End Site
										{
											OFFSET 0.000000 0.000000 0.000000
										}
									}
								}
							}
						}
					}
					JOINT RightShoulder_virtual
					{
						OFFSET 0.000000 0.000000 0.000000
						CHANNELS 3 Zrotation Yrotation Xrotation
						JOINT RightShoulder
						{
							OFFSET -4.392200 8.824993 0.141379
							CHANNELS 3 Zrotation Yrotation Xrotation
							JOINT RightArm
							{
								OFFSET -8.771282 -2.981682 -0.094208
								CHANNELS 3 Zrotation Yrotation Xrotation
								JOINT RightForeArm
								{
									OFFSET -8.494598 0.000000 0.000000
									CHANNELS 3 Zrotation Yrotation Xrotation
									JOINT RightHand
									{
										OFFSET -18.483803 0.000000 0.000001
										CHANNELS 3 Zrotation Yrotation Xrotation
										End Site
										{
											OFFSET 0.000000 0.000000 0.000000
										}
									}
								}
							}
						}
					}
				}
			}
		}
	}
}
MOTION
Frames: 4
Frame Time: 0.033333
7.102627 36.656960 8.719447 179.863442 4.421666 -179.860382 -2.958247 -2.300664 9.975903 -3.849393 -0.543359 -15.442559 6.935456 5.836871 14.300686 -6.817667 0.101973 11.449774 0.000000 0.000000 0.000000 2.405166 -0.267113 8.525876 3.678662 -3.318188 -5.382679 -7.290293 -0.224913 10.130831 6.592228 7.806529 9.482434 0.000000 0.000000 0.000000 1.119050 1.064416 -0.659652 -4.972471 1.687964 -5.812639 0.737917 -4.295369 4.112538 -0.001821 -0.001062 0.020913 0.501144 -2.710428 5.725420 0.768232 2.350417 2.538875 0.000000 0.000000 0.000000 1.772701 -1.740837 2.901531 2.320840 -2.120672 -4.695188 -8.374406 25.407115 -27.650819 -5.987193 -31.684981 -4.304492 0.000000 0.000000 0.000000 -1.489480 -1.032587 2.519270 7.765794 -3.921494 -8.686167 19.938982 -31.208910 -34.502680 -2.135719 32.885267 -3.801518 0.000000 0.000000 0.000000 
7.100562 36.655457 8.715302 179.855273 4.385163 -179.860068 -2.946871 -2.372057 10.090283 -3.852961 -0.684865 -15.329888 7.026248 5.713766 14.483544 -6.705373 0.219424 11.483461 0.000000 0.000000 0.000000 2.505839 -0.208228 8.631947 3.521465 -3.425108 -5.271229 -7.330346 -0.172814 10.258055 6.716189 7.890468 9.477567 0.000000 0.000000 0.000000 1.107933 1.028636 -0.719962 -4.992347 1.668986 -5.745909 0.728055 -4.313272 4.154230 -0.017918 -0.021975 0.030456 0.504195 -2.781801 5.660486 0.801323 2.369827 2.560588 0.000000 0.000000 0.000000 1.802422 -1.687736 2.833612 2.322065 -2.058046 -4.763569 -8.361083 25.381365 -27.601597 -5.992431 -31.651845 -4.299791 0.000000 0.000000 0.000000 -1.462365 -0.984339 2.468387 7.780834 -3.895911 -8.605760 20.026704 -31.295770 -34.444238 -2.281220 32.829758 -3.954960 0.000000 0.000000 0.000000 
7.094274 36.654636 8.710068 179.943656 4.387747 -179.803378 -2.869222 -2.362194 10.084443 -3.859171 -0.743881 -15.353572 7.015690 5.723783 14.461664 -6.711638 0.228757 11.496825 0.000000 0.000000 0.000000 2.627070 -0.178580 8.623773 3.417835 -3.463847 -5.291017 -7.285079 -0.297905 10.289233 6.922396 7.670979 9.479889 0.000000 0.000000 0.000000 1.164083 1.066201 -0.797639 -4.950976 1.723464 -5.686163 0.766041 -4.270790 4.178137 0.018185 0.027847 0.014915 0.473094 -2.682351 5.620116 0.763556 2.317651 2.518907 0.000000 0.000000 0.000000 1.745046 -1.734367 2.837209 2.311405 -2.115072 -4.683609 -8.332220 25.413792 -27.678682 -6.006717 -31.642716 -4.283332 0.000000 0.000000 0.000000 -1.513597 -1.064063 2.415358 7.738126 -3.982964 -8.581614 20.130804 -31.471705 -34.721991 -2.196185 32.829974 -3.853633 0.000000 0.000000 0.000000 
7.084674 36.652832 8.704280 179.968299 4.301349 -179.809443 -2.844110 -2.389988 10.105057 -3.882238 -0.799313 -15.363399 7.011459 5.731893 14.449759 -6.705638 0.237080 11.507340 0.000000 0.000000 0.000000 2.614571 -0.222384 8.646475 3.474839 -3.418744 -5.288660 -7.283765 -0.299303 10.284567 6.817644 7.830364 9.475275 0.000000 0.000000 0.000000 1.190842 1.041190 -0.764044 -4.943374 1.726395 -5.676424 0.767623 -4.266457 4.168240 0.016822 0.020153 0.025157 0.474712 -2.623009 5.624884 0.805796 2.322793 2.522248 0.000000 0.000000 0.000000 1.736733 -1.725003 2.832516 2.328540 -2.098839 -4.689392 -8.280226 25.429513 -27.656811 -5.995139 -31.648406 -4.287546 0.000000 0.000000 0.000000 -1.531563 -1.059753 2.394123 7.665918 -3.985797 -8.554773 20.281400 -31.733209 -34.920633 -2.216191 32.859849 -3.844299 0.000000 0.000000 0.000000 
